<?xml version="1.0" encoding="UTF-8" standalone="no"?>
<!DOCTYPE svg PUBLIC "-//W3C//DTD SVG 1.1//EN"
 "http://www.w3.org/Graphics/SVG/1.1/DTD/svg11.dtd">
<!-- Generated by graphviz version 2.47.0 (20210316.0004)
 -->
<!-- Title: dependencies Pages: 1 -->
<svg width="676pt" height="284pt"
 viewBox="0.00 0.00 676.00 284.00" xmlns="http://www.w3.org/2000/svg" xmlns:xlink="http://www.w3.org/1999/xlink">
<g id="graph0" class="graph" transform="scale(1 1) rotate(0) translate(4 280)">
<title>dependencies</title>
<polygon fill="white" stroke="transparent" points="-4,4 -4,-280 672,-280 672,4 -4,4"/>
<text text-anchor="start" x="313.01" y="-42.4" font-family="Times-12" font-weight="bold" font-size="14.00">Legend</text>
<polygon fill="#ffffb3" stroke="transparent" points="100,-10 100,-30 120,-30 120,-10 100,-10"/>
<text text-anchor="start" x="123.63" y="-15.4" font-family="Times-12" font-size="14.00"> &#160;Declarations</text>
<polygon fill="#8dd3c7" stroke="transparent" points="213,-10 213,-30 233,-30 233,-10 213,-10"/>
<text text-anchor="start" x="236.73" y="-15.4" font-family="Times-12" font-size="14.00"> &#160;Module</text>
<polygon fill="#80b1d3" stroke="transparent" points="299,-10 299,-30 319,-30 319,-10 299,-10"/>
<text text-anchor="start" x="322.78" y="-15.4" font-family="Times-12" font-size="14.00"> &#160;Bootstrap</text>
<polygon fill="#fdb462" stroke="transparent" points="396,-10 396,-30 416,-30 416,-10 396,-10"/>
<text text-anchor="start" x="419.67" y="-15.4" font-family="Times-12" font-size="14.00"> &#160;Providers</text>
<polygon fill="#fb8072" stroke="transparent" points="492,-10 492,-30 512,-30 512,-10 492,-10"/>
<text text-anchor="start" x="515.73" y="-15.4" font-family="Times-12" font-size="14.00"> &#160;Exports</text>
<g id="clust1" class="cluster">
<title>cluster_AuthModule</title>
<polygon fill="none" stroke="black" stroke-dasharray="1,5" points="8,-70 8,-268 660,-268 660,-70 8,-70"/>
</g>
<g id="clust3" class="cluster">
<title>cluster_AuthModule_imports</title>
<polygon fill="none" stroke="black" points="504,-78 504,-130 652,-130 652,-78 504,-78"/>
</g>
<g id="clust4" class="cluster">
<title>cluster_AuthModule_exports</title>
<polygon fill="none" stroke="black" points="309,-208 309,-260 415,-260 415,-208 309,-208"/>
</g>
<g id="clust6" class="cluster">
<title>cluster_AuthModule_providers</title>
<polygon fill="none" stroke="black" points="16,-78 16,-130 496,-130 496,-78 16,-78"/>
</g>
<!-- FuncionariosModule -->
<g id="node1" class="node">
<title>FuncionariosModule</title>
<polygon fill="#8dd3c7" stroke="black" points="644.15,-122 641.15,-126 620.15,-126 617.15,-122 511.85,-122 511.85,-86 644.15,-86 644.15,-122"/>
<text text-anchor="middle" x="578" y="-99.8" font-family="Times,serif" font-size="14.00">FuncionariosModule</text>
</g>
<!-- AuthModule -->
<g id="node2" class="node">
<title>AuthModule</title>
<polygon fill="#8dd3c7" stroke="black" points="405.55,-187 402.55,-191 381.55,-191 378.55,-187 318.45,-187 318.45,-151 405.55,-151 405.55,-187"/>
<text text-anchor="middle" x="362" y="-164.8" font-family="Times,serif" font-size="14.00">AuthModule</text>
</g>
<!-- FuncionariosModule&#45;&gt;AuthModule -->
<g id="edge1" class="edge">
<title>FuncionariosModule&#45;&gt;AuthModule</title>
<path fill="none" stroke="black" d="M578,-122.11C578,-141.34 578,-169 578,-169 578,-169 415.71,-169 415.71,-169"/>
<polygon fill="black" stroke="black" points="415.71,-165.5 405.71,-169 415.71,-172.5 415.71,-165.5"/>
</g>
<!-- AuthService  -->
<g id="node3" class="node">
<title>AuthService </title>
<polygon fill="#fb8072" stroke="black" points="406.98,-252 317.02,-252 317.02,-216 406.98,-216 406.98,-252"/>
<text text-anchor="middle" x="362" y="-229.8" font-family="Times,serif" font-size="14.00">AuthService </text>
</g>
<!-- AuthModule&#45;&gt;AuthService  -->
<g id="edge2" class="edge">
<title>AuthModule&#45;&gt;AuthService </title>
<path fill="none" stroke="black" stroke-dasharray="5,2" d="M362,-187.11C362,-187.11 362,-205.99 362,-205.99"/>
<polygon fill="black" stroke="black" points="358.5,-205.99 362,-215.99 365.5,-205.99 358.5,-205.99"/>
</g>
<!-- AuthService -->
<g id="node4" class="node">
<title>AuthService</title>
<ellipse fill="#fdb462" stroke="black" cx="429" cy="-104" rx="59.11" ry="18"/>
<text text-anchor="middle" x="429" y="-99.8" font-family="Times,serif" font-size="14.00">AuthService</text>
</g>
<!-- AuthService&#45;&gt;AuthModule -->
<g id="edge3" class="edge">
<title>AuthService&#45;&gt;AuthModule</title>
<path fill="none" stroke="black" d="M387.73,-117.15C387.73,-117.15 387.73,-140.69 387.73,-140.69"/>
<polygon fill="black" stroke="black" points="384.23,-140.69 387.73,-150.69 391.23,-140.69 384.23,-140.69"/>
</g>
<!-- JwtStrategy -->
<g id="node5" class="node">
<title>JwtStrategy</title>
<ellipse fill="#fdb462" stroke="black" cx="295" cy="-104" rx="56.76" ry="18"/>
<text text-anchor="middle" x="295" y="-99.8" font-family="Times,serif" font-size="14.00">JwtStrategy</text>
</g>
<!-- JwtStrategy&#45;&gt;AuthModule -->
<g id="edge4" class="edge">
<title>JwtStrategy&#45;&gt;AuthModule</title>
<path fill="none" stroke="black" d="M334.93,-116.84C334.93,-116.84 334.93,-140.52 334.93,-140.52"/>
<polygon fill="black" stroke="black" points="331.43,-140.52 334.93,-150.52 338.43,-140.52 331.43,-140.52"/>
</g>
<!-- RefreshTokenStrategy -->
<g id="node6" class="node">
<title>RefreshTokenStrategy</title>
<ellipse fill="#fdb462" stroke="black" cx="122" cy="-104" rx="97.83" ry="18"/>
<text text-anchor="middle" x="122" y="-99.8" font-family="Times,serif" font-size="14.00">RefreshTokenStrategy</text>
</g>
<!-- RefreshTokenStrategy&#45;&gt;AuthModule -->
<g id="edge5" class="edge">
<title>RefreshTokenStrategy&#45;&gt;AuthModule</title>
<path fill="none" stroke="black" d="M122,-122.11C122,-141.34 122,-169 122,-169 122,-169 308.26,-169 308.26,-169"/>
<polygon fill="black" stroke="black" points="308.26,-172.5 318.26,-169 308.26,-165.5 308.26,-172.5"/>
</g>
</g>
</svg>
