<?xml version="1.0" encoding="UTF-8" standalone="no"?>
<!DOCTYPE svg PUBLIC "-//W3C//DTD SVG 1.1//EN"
 "http://www.w3.org/Graphics/SVG/1.1/DTD/svg11.dtd">
<!-- Generated by graphviz version 2.47.0 (20210316.0004)
 -->
<!-- Title: dependencies Pages: 1 -->
<svg width="504pt" height="284pt"
 viewBox="0.00 0.00 504.00 284.00" xmlns="http://www.w3.org/2000/svg" xmlns:xlink="http://www.w3.org/1999/xlink">
<g id="graph0" class="graph" transform="scale(1 1) rotate(0) translate(4 280)">
<title>dependencies</title>
<polygon fill="white" stroke="transparent" points="-4,4 -4,-280 500,-280 500,4 -4,4"/>
<text text-anchor="start" x="227.01" y="-42.4" font-family="Times-12" font-weight="bold" font-size="14.00">Legend</text>
<polygon fill="#ffffb3" stroke="transparent" points="14,-10 14,-30 34,-30 34,-10 14,-10"/>
<text text-anchor="start" x="37.63" y="-15.4" font-family="Times-12" font-size="14.00"> &#160;Declarations</text>
<polygon fill="#8dd3c7" stroke="transparent" points="127,-10 127,-30 147,-30 147,-10 127,-10"/>
<text text-anchor="start" x="150.73" y="-15.4" font-family="Times-12" font-size="14.00"> &#160;Module</text>
<polygon fill="#80b1d3" stroke="transparent" points="213,-10 213,-30 233,-30 233,-10 213,-10"/>
<text text-anchor="start" x="236.78" y="-15.4" font-family="Times-12" font-size="14.00"> &#160;Bootstrap</text>
<polygon fill="#fdb462" stroke="transparent" points="310,-10 310,-30 330,-30 330,-10 310,-10"/>
<text text-anchor="start" x="333.67" y="-15.4" font-family="Times-12" font-size="14.00"> &#160;Providers</text>
<polygon fill="#fb8072" stroke="transparent" points="406,-10 406,-30 426,-30 426,-10 406,-10"/>
<text text-anchor="start" x="429.73" y="-15.4" font-family="Times-12" font-size="14.00"> &#160;Exports</text>
<g id="clust1" class="cluster">
<title>cluster_PrismaTenantModule</title>
<polygon fill="none" stroke="black" stroke-dasharray="1,5" points="77,-70 77,-268 419,-268 419,-70 77,-70"/>
</g>
<g id="clust6" class="cluster">
<title>cluster_PrismaTenantModule_providers</title>
<polygon fill="none" stroke="black" points="207,-78 207,-130 411,-130 411,-78 207,-78"/>
</g>
<g id="clust4" class="cluster">
<title>cluster_PrismaTenantModule_exports</title>
<polygon fill="none" stroke="black" points="158,-208 158,-260 314,-260 314,-208 158,-208"/>
</g>
<g id="clust3" class="cluster">
<title>cluster_PrismaTenantModule_imports</title>
<polygon fill="none" stroke="black" points="85,-78 85,-130 199,-130 199,-78 85,-78"/>
</g>
<!-- PrismaModule -->
<g id="node1" class="node">
<title>PrismaModule</title>
<polygon fill="#8dd3c7" stroke="black" points="191.43,-122 188.43,-126 167.43,-126 164.43,-122 92.57,-122 92.57,-86 191.43,-86 191.43,-122"/>
<text text-anchor="middle" x="142" y="-99.8" font-family="Times,serif" font-size="14.00">PrismaModule</text>
</g>
<!-- PrismaTenantModule -->
<g id="node2" class="node">
<title>PrismaTenantModule</title>
<polygon fill="#8dd3c7" stroke="black" points="304.81,-187 301.81,-191 280.81,-191 277.81,-187 167.19,-187 167.19,-151 304.81,-151 304.81,-187"/>
<text text-anchor="middle" x="236" y="-164.8" font-family="Times,serif" font-size="14.00">PrismaTenantModule</text>
</g>
<!-- PrismaModule&#45;&gt;PrismaTenantModule -->
<g id="edge1" class="edge">
<title>PrismaModule&#45;&gt;PrismaTenantModule</title>
<path fill="none" stroke="black" d="M179.28,-122.11C179.28,-122.11 179.28,-140.99 179.28,-140.99"/>
<polygon fill="black" stroke="black" points="175.78,-140.99 179.28,-150.99 182.78,-140.99 175.78,-140.99"/>
</g>
<!-- PrismaTenantService  -->
<g id="node3" class="node">
<title>PrismaTenantService </title>
<polygon fill="#fb8072" stroke="black" points="305.73,-252 166.27,-252 166.27,-216 305.73,-216 305.73,-252"/>
<text text-anchor="middle" x="236" y="-229.8" font-family="Times,serif" font-size="14.00">PrismaTenantService </text>
</g>
<!-- PrismaTenantModule&#45;&gt;PrismaTenantService  -->
<g id="edge2" class="edge">
<title>PrismaTenantModule&#45;&gt;PrismaTenantService </title>
<path fill="none" stroke="black" stroke-dasharray="5,2" d="M236,-187.11C236,-187.11 236,-205.99 236,-205.99"/>
<polygon fill="black" stroke="black" points="232.5,-205.99 236,-215.99 239.5,-205.99 232.5,-205.99"/>
</g>
<!-- PrismaTenantService -->
<g id="node4" class="node">
<title>PrismaTenantService</title>
<ellipse fill="#fdb462" stroke="black" cx="309" cy="-104" rx="93.75" ry="18"/>
<text text-anchor="middle" x="309" y="-99.8" font-family="Times,serif" font-size="14.00">PrismaTenantService</text>
</g>
<!-- PrismaTenantService&#45;&gt;PrismaTenantModule -->
<g id="edge3" class="edge">
<title>PrismaTenantService&#45;&gt;PrismaTenantModule</title>
<path fill="none" stroke="black" d="M260.01,-119.4C260.01,-119.4 260.01,-140.94 260.01,-140.94"/>
<polygon fill="black" stroke="black" points="256.51,-140.94 260.01,-150.94 263.51,-140.94 256.51,-140.94"/>
</g>
</g>
</svg>
