<?xml version="1.0" encoding="UTF-8" standalone="no"?>
<!DOCTYPE svg PUBLIC "-//W3C//DTD SVG 1.1//EN"
 "http://www.w3.org/Graphics/SVG/1.1/DTD/svg11.dtd">
<!-- Generated by graphviz version 2.47.0 (20210316.0004)
 -->
<!-- Title: dependencies Pages: 1 -->
<svg width="504pt" height="211pt"
 viewBox="0.00 0.00 504.00 211.00" xmlns="http://www.w3.org/2000/svg" xmlns:xlink="http://www.w3.org/1999/xlink">
<g id="graph0" class="graph" transform="scale(1 1) rotate(0) translate(4 207)">
<title>dependencies</title>
<polygon fill="white" stroke="transparent" points="-4,4 -4,-207 500,-207 500,4 -4,4"/>
<text text-anchor="start" x="227.01" y="-42.4" font-family="Times-12" font-weight="bold" font-size="14.00">Legend</text>
<polygon fill="#ffffb3" stroke="transparent" points="14,-10 14,-30 34,-30 34,-10 14,-10"/>
<text text-anchor="start" x="37.63" y="-15.4" font-family="Times-12" font-size="14.00"> &#160;Declarations</text>
<polygon fill="#8dd3c7" stroke="transparent" points="127,-10 127,-30 147,-30 147,-10 127,-10"/>
<text text-anchor="start" x="150.73" y="-15.4" font-family="Times-12" font-size="14.00"> &#160;Module</text>
<polygon fill="#80b1d3" stroke="transparent" points="213,-10 213,-30 233,-30 233,-10 213,-10"/>
<text text-anchor="start" x="236.78" y="-15.4" font-family="Times-12" font-size="14.00"> &#160;Bootstrap</text>
<polygon fill="#fdb462" stroke="transparent" points="310,-10 310,-30 330,-30 330,-10 310,-10"/>
<text text-anchor="start" x="333.67" y="-15.4" font-family="Times-12" font-size="14.00"> &#160;Providers</text>
<polygon fill="#fb8072" stroke="transparent" points="406,-10 406,-30 426,-30 426,-10 406,-10"/>
<text text-anchor="start" x="429.73" y="-15.4" font-family="Times-12" font-size="14.00"> &#160;Exports</text>
<g id="clust1" class="cluster">
<title>cluster_AlmoxarifadosModule</title>
<polygon fill="none" stroke="black" stroke-dasharray="1,5" points="73,-70 73,-195 423,-195 423,-70 73,-70"/>
</g>
<g id="clust3" class="cluster">
<title>cluster_AlmoxarifadosModule_imports</title>
<polygon fill="none" stroke="black" points="301,-78 301,-130 415,-130 415,-78 301,-78"/>
</g>
<g id="clust6" class="cluster">
<title>cluster_AlmoxarifadosModule_providers</title>
<polygon fill="none" stroke="black" points="81,-78 81,-130 293,-130 293,-78 81,-78"/>
</g>
<!-- PrismaModule -->
<g id="node1" class="node">
<title>PrismaModule</title>
<polygon fill="#8dd3c7" stroke="black" points="407.43,-122 404.43,-126 383.43,-126 380.43,-122 308.57,-122 308.57,-86 407.43,-86 407.43,-122"/>
<text text-anchor="middle" x="358" y="-99.8" font-family="Times,serif" font-size="14.00">PrismaModule</text>
</g>
<!-- AlmoxarifadosModule -->
<g id="node2" class="node">
<title>AlmoxarifadosModule</title>
<polygon fill="#8dd3c7" stroke="black" points="336.52,-187 333.52,-191 312.52,-191 309.52,-187 193.48,-187 193.48,-151 336.52,-151 336.52,-187"/>
<text text-anchor="middle" x="265" y="-164.8" font-family="Times,serif" font-size="14.00">AlmoxarifadosModule</text>
</g>
<!-- PrismaModule&#45;&gt;AlmoxarifadosModule -->
<g id="edge1" class="edge">
<title>PrismaModule&#45;&gt;AlmoxarifadosModule</title>
<path fill="none" stroke="black" d="M322.77,-122.11C322.77,-122.11 322.77,-140.99 322.77,-140.99"/>
<polygon fill="black" stroke="black" points="319.27,-140.99 322.77,-150.99 326.27,-140.99 319.27,-140.99"/>
</g>
<!-- AlmoxarifadosService -->
<g id="node3" class="node">
<title>AlmoxarifadosService</title>
<ellipse fill="#fdb462" stroke="black" cx="187" cy="-104" rx="97.83" ry="18"/>
<text text-anchor="middle" x="187" y="-99.8" font-family="Times,serif" font-size="14.00">AlmoxarifadosService</text>
</g>
<!-- AlmoxarifadosService&#45;&gt;AlmoxarifadosModule -->
<g id="edge2" class="edge">
<title>AlmoxarifadosService&#45;&gt;AlmoxarifadosModule</title>
<path fill="none" stroke="black" d="M239.08,-119.4C239.08,-119.4 239.08,-140.94 239.08,-140.94"/>
<polygon fill="black" stroke="black" points="235.58,-140.94 239.08,-150.94 242.58,-140.94 235.58,-140.94"/>
</g>
</g>
</svg>
