<?xml version="1.0" encoding="UTF-8" standalone="no"?>
<!DOCTYPE svg PUBLIC "-//W3C//DTD SVG 1.1//EN"
 "http://www.w3.org/Graphics/SVG/1.1/DTD/svg11.dtd">
<!-- Generated by graphviz version 2.47.0 (20210316.0004)
 -->
<!-- Title: dependencies Pages: 1 -->
<svg width="5585pt" height="284pt"
 viewBox="0.00 0.00 5585.00 284.00" xmlns="http://www.w3.org/2000/svg" xmlns:xlink="http://www.w3.org/1999/xlink">
<g id="graph0" class="graph" transform="scale(1 1) rotate(0) translate(4 280)">
<title>dependencies</title>
<polygon fill="white" stroke="transparent" points="-4,4 -4,-280 5581,-280 5581,4 -4,4"/>
<text text-anchor="start" x="2767.51" y="-42.4" font-family="Times-12" font-weight="bold" font-size="14.00">Legend</text>
<polygon fill="#ffffb3" stroke="transparent" points="2554.5,-10 2554.5,-30 2574.5,-30 2574.5,-10 2554.5,-10"/>
<text text-anchor="start" x="2578.13" y="-15.4" font-family="Times-12" font-size="14.00"> &#160;Declarations</text>
<polygon fill="#8dd3c7" stroke="transparent" points="2667.5,-10 2667.5,-30 2687.5,-30 2687.5,-10 2667.5,-10"/>
<text text-anchor="start" x="2691.23" y="-15.4" font-family="Times-12" font-size="14.00"> &#160;Module</text>
<polygon fill="#80b1d3" stroke="transparent" points="2753.5,-10 2753.5,-30 2773.5,-30 2773.5,-10 2753.5,-10"/>
<text text-anchor="start" x="2777.28" y="-15.4" font-family="Times-12" font-size="14.00"> &#160;Bootstrap</text>
<polygon fill="#fdb462" stroke="transparent" points="2850.5,-10 2850.5,-30 2870.5,-30 2870.5,-10 2850.5,-10"/>
<text text-anchor="start" x="2874.17" y="-15.4" font-family="Times-12" font-size="14.00"> &#160;Providers</text>
<polygon fill="#fb8072" stroke="transparent" points="2946.5,-10 2946.5,-30 2966.5,-30 2966.5,-10 2946.5,-10"/>
<text text-anchor="start" x="2970.23" y="-15.4" font-family="Times-12" font-size="14.00"> &#160;Exports</text>
<g id="clust1" class="cluster">
<title>cluster_AppModule</title>
<polygon fill="none" stroke="black" stroke-dasharray="1,5" points="8,-70 8,-268 5569,-268 5569,-70 8,-70"/>
</g>
<g id="clust3" class="cluster">
<title>cluster_AppModule_imports</title>
<polygon fill="none" stroke="black" points="228,-78 228,-130 5561,-130 5561,-78 228,-78"/>
</g>
<g id="clust4" class="cluster">
<title>cluster_AppModule_exports</title>
<polygon fill="none" stroke="black" points="2676,-208 2676,-260 2832,-260 2832,-208 2676,-208"/>
</g>
<g id="clust6" class="cluster">
<title>cluster_AppModule_providers</title>
<polygon fill="none" stroke="black" points="16,-78 16,-130 220,-130 220,-78 16,-78"/>
</g>
<!-- AcertoFechamentosModule -->
<g id="node1" class="node">
<title>AcertoFechamentosModule</title>
<polygon fill="#8dd3c7" stroke="black" points="5552.5,-122 5549.5,-126 5528.5,-126 5525.5,-122 5381.5,-122 5381.5,-86 5552.5,-86 5552.5,-122"/>
<text text-anchor="middle" x="5467" y="-99.8" font-family="Times,serif" font-size="14.00">AcertoFechamentosModule</text>
</g>
<!-- AppModule -->
<g id="node37" class="node">
<title>AppModule</title>
<polygon fill="#8dd3c7" stroke="black" points="2795.66,-187 2792.66,-191 2771.66,-191 2768.66,-187 2712.34,-187 2712.34,-151 2795.66,-151 2795.66,-187"/>
<text text-anchor="middle" x="2754" y="-164.8" font-family="Times,serif" font-size="14.00">AppModule</text>
</g>
<!-- AcertoFechamentosModule&#45;&gt;AppModule -->
<g id="edge1" class="edge">
<title>AcertoFechamentosModule&#45;&gt;AppModule</title>
<path fill="none" stroke="black" d="M5467,-122.2C5467,-146.36 5467,-186 5467,-186 5467,-186 2805.8,-186 2805.8,-186"/>
<polygon fill="black" stroke="black" points="2805.8,-182.5 2795.8,-186 2805.8,-189.5 2805.8,-182.5"/>
</g>
<!-- AlmoxarifadosModule -->
<g id="node2" class="node">
<title>AlmoxarifadosModule</title>
<polygon fill="#8dd3c7" stroke="black" points="5362.52,-122 5359.52,-126 5338.52,-126 5335.52,-122 5219.48,-122 5219.48,-86 5362.52,-86 5362.52,-122"/>
<text text-anchor="middle" x="5291" y="-99.8" font-family="Times,serif" font-size="14.00">AlmoxarifadosModule</text>
</g>
<!-- AlmoxarifadosModule&#45;&gt;AppModule -->
<g id="edge2" class="edge">
<title>AlmoxarifadosModule&#45;&gt;AppModule</title>
<path fill="none" stroke="black" d="M5291,-122.15C5291,-145.76 5291,-184 5291,-184 5291,-184 2805.92,-184 2805.92,-184"/>
<polygon fill="black" stroke="black" points="2805.92,-180.5 2795.92,-184 2805.92,-187.5 2805.92,-180.5"/>
</g>
<!-- AuthModule -->
<g id="node3" class="node">
<title>AuthModule</title>
<polygon fill="#8dd3c7" stroke="black" points="5200.55,-122 5197.55,-126 5176.55,-126 5173.55,-122 5113.45,-122 5113.45,-86 5200.55,-86 5200.55,-122"/>
<text text-anchor="middle" x="5157" y="-99.8" font-family="Times,serif" font-size="14.00">AuthModule</text>
</g>
<!-- AuthModule&#45;&gt;AppModule -->
<g id="edge3" class="edge">
<title>AuthModule&#45;&gt;AppModule</title>
<path fill="none" stroke="black" d="M5157,-122.09C5157,-145.13 5157,-182 5157,-182 5157,-182 2805.71,-182 2805.71,-182"/>
<polygon fill="black" stroke="black" points="2805.71,-178.5 2795.71,-182 2805.71,-185.5 2805.71,-178.5"/>
</g>
<!-- BrindesModule -->
<g id="node4" class="node">
<title>BrindesModule</title>
<polygon fill="#8dd3c7" stroke="black" points="5095.6,-122 5092.6,-126 5071.6,-126 5068.6,-122 4992.4,-122 4992.4,-86 5095.6,-86 5095.6,-122"/>
<text text-anchor="middle" x="5044" y="-99.8" font-family="Times,serif" font-size="14.00">BrindesModule</text>
</g>
<!-- BrindesModule&#45;&gt;AppModule -->
<g id="edge4" class="edge">
<title>BrindesModule&#45;&gt;AppModule</title>
<path fill="none" stroke="black" d="M5044,-122.01C5044,-144.49 5044,-180 5044,-180 5044,-180 2805.7,-180 2805.7,-180"/>
<polygon fill="black" stroke="black" points="2805.7,-176.5 2795.7,-180 2805.7,-183.5 2805.7,-176.5"/>
</g>
<!-- CidadesModule -->
<g id="node5" class="node">
<title>CidadesModule</title>
<polygon fill="#8dd3c7" stroke="black" points="4974.15,-122 4971.15,-126 4950.15,-126 4947.15,-122 4869.85,-122 4869.85,-86 4974.15,-86 4974.15,-122"/>
<text text-anchor="middle" x="4922" y="-99.8" font-family="Times,serif" font-size="14.00">CidadesModule</text>
</g>
<!-- CidadesModule&#45;&gt;AppModule -->
<g id="edge5" class="edge">
<title>CidadesModule&#45;&gt;AppModule</title>
<path fill="none" stroke="black" d="M4922,-122.29C4922,-144.21 4922,-178 4922,-178 4922,-178 2805.85,-178 2805.85,-178"/>
<polygon fill="black" stroke="black" points="2805.85,-174.5 2795.85,-178 2805.85,-181.5 2805.85,-174.5"/>
</g>
<!-- ClientesModule -->
<g id="node6" class="node">
<title>ClientesModule</title>
<polygon fill="#8dd3c7" stroke="black" points="4851.93,-122 4848.93,-126 4827.93,-126 4824.93,-122 4746.07,-122 4746.07,-86 4851.93,-86 4851.93,-122"/>
<text text-anchor="middle" x="4799" y="-99.8" font-family="Times,serif" font-size="14.00">ClientesModule</text>
</g>
<!-- ClientesModule&#45;&gt;AppModule -->
<g id="edge6" class="edge">
<title>ClientesModule&#45;&gt;AppModule</title>
<path fill="none" stroke="black" d="M4799,-122.17C4799,-143.5 4799,-176 4799,-176 4799,-176 2805.78,-176 2805.78,-176"/>
<polygon fill="black" stroke="black" points="2805.78,-172.5 2795.78,-176 2805.78,-179.5 2805.78,-172.5"/>
</g>
<!-- CobrancasModule -->
<g id="node7" class="node">
<title>CobrancasModule</title>
<polygon fill="#8dd3c7" stroke="black" points="4728.14,-122 4725.14,-126 4704.14,-126 4701.14,-122 4609.86,-122 4609.86,-86 4728.14,-86 4728.14,-122"/>
<text text-anchor="middle" x="4669" y="-99.8" font-family="Times,serif" font-size="14.00">CobrancasModule</text>
</g>
<!-- CobrancasModule&#45;&gt;AppModule -->
<g id="edge7" class="edge">
<title>CobrancasModule&#45;&gt;AppModule</title>
<path fill="none" stroke="black" d="M4669,-122.03C4669,-142.77 4669,-174 4669,-174 4669,-174 2805.78,-174 2805.78,-174"/>
<polygon fill="black" stroke="black" points="2805.78,-170.5 2795.78,-174 2805.78,-177.5 2805.78,-170.5"/>
</g>
<!-- ComposicoesModule -->
<g id="node8" class="node">
<title>ComposicoesModule</title>
<polygon fill="#8dd3c7" stroke="black" points="4591.49,-122 4588.49,-126 4567.49,-126 4564.49,-122 4456.51,-122 4456.51,-86 4591.49,-86 4591.49,-122"/>
<text text-anchor="middle" x="4524" y="-99.8" font-family="Times,serif" font-size="14.00">ComposicoesModule</text>
</g>
<!-- ComposicoesModule&#45;&gt;AppModule -->
<g id="edge8" class="edge">
<title>ComposicoesModule&#45;&gt;AppModule</title>
<path fill="none" stroke="black" d="M4524,-122.22C4524,-142.37 4524,-172 4524,-172 4524,-172 2806.01,-172 2806.01,-172"/>
<polygon fill="black" stroke="black" points="2806.01,-168.5 2796.01,-172 2806.01,-175.5 2806.01,-168.5"/>
</g>
<!-- DebitosClientesModule -->
<g id="node9" class="node">
<title>DebitosClientesModule</title>
<polygon fill="#8dd3c7" stroke="black" points="4438.48,-122 4435.48,-126 4414.48,-126 4411.48,-122 4289.52,-122 4289.52,-86 4438.48,-86 4438.48,-122"/>
<text text-anchor="middle" x="4364" y="-99.8" font-family="Times,serif" font-size="14.00">DebitosClientesModule</text>
</g>
<!-- DebitosClientesModule&#45;&gt;AppModule -->
<g id="edge9" class="edge">
<title>DebitosClientesModule&#45;&gt;AppModule</title>
<path fill="none" stroke="black" d="M4364,-122.03C4364,-141.58 4364,-170 4364,-170 4364,-170 2805.83,-170 2805.83,-170"/>
<polygon fill="black" stroke="black" points="2805.83,-166.5 2795.83,-170 2805.83,-173.5 2805.83,-166.5"/>
</g>
<!-- DepositosModule -->
<g id="node10" class="node">
<title>DepositosModule</title>
<polygon fill="#8dd3c7" stroke="black" points="4271.54,-122 4268.54,-126 4247.54,-126 4244.54,-122 4156.46,-122 4156.46,-86 4271.54,-86 4271.54,-122"/>
<text text-anchor="middle" x="4214" y="-99.8" font-family="Times,serif" font-size="14.00">DepositosModule</text>
</g>
<!-- DepositosModule&#45;&gt;AppModule -->
<g id="edge10" class="edge">
<title>DepositosModule&#45;&gt;AppModule</title>
<path fill="none" stroke="black" d="M4214,-122.11C4214,-141.34 4214,-169 4214,-169 4214,-169 2805.73,-169 2805.73,-169"/>
<polygon fill="black" stroke="black" points="2805.73,-165.5 2795.73,-169 2805.73,-172.5 2805.73,-165.5"/>
</g>
<!-- DespesasModule -->
<g id="node11" class="node">
<title>DespesasModule</title>
<polygon fill="#8dd3c7" stroke="black" points="4137.63,-122 4134.63,-126 4113.63,-126 4110.63,-122 4026.37,-122 4026.37,-86 4137.63,-86 4137.63,-122"/>
<text text-anchor="middle" x="4082" y="-99.8" font-family="Times,serif" font-size="14.00">DespesasModule</text>
</g>
<!-- DespesasModule&#45;&gt;AppModule -->
<g id="edge11" class="edge">
<title>DespesasModule&#45;&gt;AppModule</title>
<path fill="none" stroke="black" d="M4082,-122.22C4082,-140.83 4082,-167 4082,-167 4082,-167 2805.94,-167 2805.94,-167"/>
<polygon fill="black" stroke="black" points="2805.94,-163.5 2795.94,-167 2805.94,-170.5 2805.94,-163.5"/>
</g>
<!-- FuncaosModule -->
<g id="node12" class="node">
<title>FuncaosModule</title>
<polygon fill="#8dd3c7" stroke="black" points="4008.21,-122 4005.21,-126 3984.21,-126 3981.21,-122 3901.79,-122 3901.79,-86 4008.21,-86 4008.21,-122"/>
<text text-anchor="middle" x="3955" y="-99.8" font-family="Times,serif" font-size="14.00">FuncaosModule</text>
</g>
<!-- FuncaosModule&#45;&gt;AppModule -->
<g id="edge12" class="edge">
<title>FuncaosModule&#45;&gt;AppModule</title>
<path fill="none" stroke="black" d="M3955,-122.3C3955,-140.27 3955,-165 3955,-165 3955,-165 2805.69,-165 2805.69,-165"/>
<polygon fill="black" stroke="black" points="2805.69,-161.5 2795.69,-165 2805.69,-168.5 2805.69,-161.5"/>
</g>
<!-- FuncionarioPerfilsModule -->
<g id="node13" class="node">
<title>FuncionarioPerfilsModule</title>
<polygon fill="#8dd3c7" stroke="black" points="3883.75,-122 3880.75,-126 3859.75,-126 3856.75,-122 3720.25,-122 3720.25,-86 3883.75,-86 3883.75,-122"/>
<text text-anchor="middle" x="3802" y="-99.8" font-family="Times,serif" font-size="14.00">FuncionarioPerfilsModule</text>
</g>
<!-- FuncionarioPerfilsModule&#45;&gt;AppModule -->
<g id="edge13" class="edge">
<title>FuncionarioPerfilsModule&#45;&gt;AppModule</title>
<path fill="none" stroke="black" d="M3802,-122.02C3802,-139.37 3802,-163 3802,-163 3802,-163 2805.73,-163 2805.73,-163"/>
<polygon fill="black" stroke="black" points="2805.73,-159.5 2795.73,-163 2805.73,-166.5 2805.73,-159.5"/>
</g>
<!-- FuncionariosModule -->
<g id="node14" class="node">
<title>FuncionariosModule</title>
<polygon fill="#8dd3c7" stroke="black" points="3702.15,-122 3699.15,-126 3678.15,-126 3675.15,-122 3569.85,-122 3569.85,-86 3702.15,-86 3702.15,-122"/>
<text text-anchor="middle" x="3636" y="-99.8" font-family="Times,serif" font-size="14.00">FuncionariosModule</text>
</g>
<!-- FuncionariosModule&#45;&gt;AppModule -->
<g id="edge14" class="edge">
<title>FuncionariosModule&#45;&gt;AppModule</title>
<path fill="none" stroke="black" d="M3636,-122.04C3636,-138.73 3636,-161 3636,-161 3636,-161 2805.95,-161 2805.95,-161"/>
<polygon fill="black" stroke="black" points="2805.95,-157.5 2795.95,-161 2805.95,-164.5 2805.95,-157.5"/>
</g>
<!-- HistoricoComposicoesModule -->
<g id="node15" class="node">
<title>HistoricoComposicoesModule</title>
<polygon fill="#8dd3c7" stroke="black" points="3551.58,-122 3548.58,-126 3527.58,-126 3524.58,-122 3364.42,-122 3364.42,-86 3551.58,-86 3551.58,-122"/>
<text text-anchor="middle" x="3458" y="-99.8" font-family="Times,serif" font-size="14.00">HistoricoComposicoesModule</text>
</g>
<!-- HistoricoComposicoesModule&#45;&gt;AppModule -->
<g id="edge15" class="edge">
<title>HistoricoComposicoesModule&#45;&gt;AppModule</title>
<path fill="none" stroke="black" d="M3458,-122.01C3458,-138.05 3458,-159 3458,-159 3458,-159 2805.67,-159 2805.67,-159"/>
<polygon fill="black" stroke="black" points="2805.67,-155.5 2795.67,-159 2805.67,-162.5 2805.67,-155.5"/>
</g>
<!-- HistoricoPontosModule -->
<g id="node16" class="node">
<title>HistoricoPontosModule</title>
<polygon fill="#8dd3c7" stroke="black" points="3346.77,-122 3343.77,-126 3322.77,-126 3319.77,-122 3197.23,-122 3197.23,-86 3346.77,-86 3346.77,-122"/>
<text text-anchor="middle" x="3272" y="-99.8" font-family="Times,serif" font-size="14.00">HistoricoPontosModule</text>
</g>
<!-- HistoricoPontosModule&#45;&gt;AppModule -->
<g id="edge16" class="edge">
<title>HistoricoPontosModule&#45;&gt;AppModule</title>
<path fill="none" stroke="black" d="M3272,-122.24C3272,-137.57 3272,-157 3272,-157 3272,-157 2805.95,-157 2805.95,-157"/>
<polygon fill="black" stroke="black" points="2805.95,-153.5 2795.95,-157 2805.95,-160.5 2805.95,-153.5"/>
</g>
<!-- ItensAcertosModule -->
<g id="node17" class="node">
<title>ItensAcertosModule</title>
<polygon fill="#8dd3c7" stroke="black" points="3179.29,-122 3176.29,-126 3155.29,-126 3152.29,-122 3048.71,-122 3048.71,-86 3179.29,-86 3179.29,-122"/>
<text text-anchor="middle" x="3114" y="-99.8" font-family="Times,serif" font-size="14.00">ItensAcertosModule</text>
</g>
<!-- ItensAcertosModule&#45;&gt;AppModule -->
<g id="edge17" class="edge">
<title>ItensAcertosModule&#45;&gt;AppModule</title>
<path fill="none" stroke="black" d="M3114,-122.12C3114,-136.78 3114,-155 3114,-155 3114,-155 2806,-155 2806,-155"/>
<polygon fill="black" stroke="black" points="2806,-151.5 2796,-155 2806,-158.5 2806,-151.5"/>
</g>
<!-- ItensPedidoAlmoxarifadosModule -->
<g id="node18" class="node">
<title>ItensPedidoAlmoxarifadosModule</title>
<polygon fill="#8dd3c7" stroke="black" points="3030.62,-122 3027.62,-126 3006.62,-126 3003.62,-122 2821.38,-122 2821.38,-86 3030.62,-86 3030.62,-122"/>
<text text-anchor="middle" x="2926" y="-99.8" font-family="Times,serif" font-size="14.00">ItensPedidoAlmoxarifadosModule</text>
</g>
<!-- ItensPedidoAlmoxarifadosModule&#45;&gt;AppModule -->
<g id="edge18" class="edge">
<title>ItensPedidoAlmoxarifadosModule&#45;&gt;AppModule</title>
<path fill="none" stroke="black" d="M2927.21,-122.25C2927.21,-136.18 2927.21,-153 2927.21,-153 2927.21,-153 2805.93,-153 2805.93,-153"/>
<polygon fill="black" stroke="black" points="2805.93,-149.5 2795.93,-153 2805.93,-156.5 2805.93,-149.5"/>
</g>
<!-- LinhasModule -->
<g id="node19" class="node">
<title>LinhasModule</title>
<polygon fill="#8dd3c7" stroke="black" points="2802.65,-122 2799.65,-126 2778.65,-126 2775.65,-122 2705.35,-122 2705.35,-86 2802.65,-86 2802.65,-122"/>
<text text-anchor="middle" x="2754" y="-99.8" font-family="Times,serif" font-size="14.00">LinhasModule</text>
</g>
<!-- LinhasModule&#45;&gt;AppModule -->
<g id="edge19" class="edge">
<title>LinhasModule&#45;&gt;AppModule</title>
<path fill="none" stroke="black" d="M2754,-122.11C2754,-122.11 2754,-140.99 2754,-140.99"/>
<polygon fill="black" stroke="black" points="2750.5,-140.99 2754,-150.99 2757.5,-140.99 2750.5,-140.99"/>
</g>
<!-- LogMesasModule -->
<g id="node20" class="node">
<title>LogMesasModule</title>
<polygon fill="#8dd3c7" stroke="black" points="2686.87,-122 2683.87,-126 2662.87,-126 2659.87,-122 2569.13,-122 2569.13,-86 2686.87,-86 2686.87,-122"/>
<text text-anchor="middle" x="2628" y="-99.8" font-family="Times,serif" font-size="14.00">LogMesasModule</text>
</g>
<!-- LogMesasModule&#45;&gt;AppModule -->
<g id="edge20" class="edge">
<title>LogMesasModule&#45;&gt;AppModule</title>
<path fill="none" stroke="black" d="M2626.73,-122.25C2626.73,-136.18 2626.73,-153 2626.73,-153 2626.73,-153 2702.33,-153 2702.33,-153"/>
<polygon fill="black" stroke="black" points="2702.33,-156.5 2712.33,-153 2702.33,-149.5 2702.33,-156.5"/>
</g>
<!-- MembrosLinhasModule -->
<g id="node21" class="node">
<title>MembrosLinhasModule</title>
<polygon fill="#8dd3c7" stroke="black" points="2550.81,-122 2547.81,-126 2526.81,-126 2523.81,-122 2399.19,-122 2399.19,-86 2550.81,-86 2550.81,-122"/>
<text text-anchor="middle" x="2475" y="-99.8" font-family="Times,serif" font-size="14.00">MembrosLinhasModule</text>
</g>
<!-- MembrosLinhasModule&#45;&gt;AppModule -->
<g id="edge21" class="edge">
<title>MembrosLinhasModule&#45;&gt;AppModule</title>
<path fill="none" stroke="black" d="M2475,-122.12C2475,-136.78 2475,-155 2475,-155 2475,-155 2702.23,-155 2702.23,-155"/>
<polygon fill="black" stroke="black" points="2702.23,-158.5 2712.23,-155 2702.23,-151.5 2702.23,-158.5"/>
</g>
<!-- MesaEntradasModule -->
<g id="node22" class="node">
<title>MesaEntradasModule</title>
<polygon fill="#8dd3c7" stroke="black" points="2381.35,-122 2378.35,-126 2357.35,-126 2354.35,-122 2242.65,-122 2242.65,-86 2381.35,-86 2381.35,-122"/>
<text text-anchor="middle" x="2312" y="-99.8" font-family="Times,serif" font-size="14.00">MesaEntradasModule</text>
</g>
<!-- MesaEntradasModule&#45;&gt;AppModule -->
<g id="edge22" class="edge">
<title>MesaEntradasModule&#45;&gt;AppModule</title>
<path fill="none" stroke="black" d="M2312,-122.24C2312,-137.57 2312,-157 2312,-157 2312,-157 2702.02,-157 2702.02,-157"/>
<polygon fill="black" stroke="black" points="2702.02,-160.5 2712.02,-157 2702.02,-153.5 2702.02,-160.5"/>
</g>
<!-- MesaSaidasModule -->
<g id="node23" class="node">
<title>MesaSaidasModule</title>
<polygon fill="#8dd3c7" stroke="black" points="2224.42,-122 2221.42,-126 2200.42,-126 2197.42,-122 2097.58,-122 2097.58,-86 2224.42,-86 2224.42,-122"/>
<text text-anchor="middle" x="2161" y="-99.8" font-family="Times,serif" font-size="14.00">MesaSaidasModule</text>
</g>
<!-- MesaSaidasModule&#45;&gt;AppModule -->
<g id="edge23" class="edge">
<title>MesaSaidasModule&#45;&gt;AppModule</title>
<path fill="none" stroke="black" d="M2161,-122.01C2161,-138.05 2161,-159 2161,-159 2161,-159 2702.3,-159 2702.3,-159"/>
<polygon fill="black" stroke="black" points="2702.3,-162.5 2712.3,-159 2702.3,-155.5 2702.3,-162.5"/>
</g>
<!-- MesasModule -->
<g id="node24" class="node">
<title>MesasModule</title>
<polygon fill="#8dd3c7" stroke="black" points="2079.81,-122 2076.81,-126 2055.81,-126 2052.81,-122 1984.19,-122 1984.19,-86 2079.81,-86 2079.81,-122"/>
<text text-anchor="middle" x="2032" y="-99.8" font-family="Times,serif" font-size="14.00">MesasModule</text>
</g>
<!-- MesasModule&#45;&gt;AppModule -->
<g id="edge24" class="edge">
<title>MesasModule&#45;&gt;AppModule</title>
<path fill="none" stroke="black" d="M2032,-122.04C2032,-138.73 2032,-161 2032,-161 2032,-161 2702.33,-161 2702.33,-161"/>
<polygon fill="black" stroke="black" points="2702.33,-164.5 2712.33,-161 2702.33,-157.5 2702.33,-164.5"/>
</g>
<!-- MovimentacoesModule -->
<g id="node25" class="node">
<title>MovimentacoesModule</title>
<polygon fill="#8dd3c7" stroke="black" points="1966.47,-122 1963.47,-126 1942.47,-126 1939.47,-122 1817.53,-122 1817.53,-86 1966.47,-86 1966.47,-122"/>
<text text-anchor="middle" x="1892" y="-99.8" font-family="Times,serif" font-size="14.00">MovimentacoesModule</text>
</g>
<!-- MovimentacoesModule&#45;&gt;AppModule -->
<g id="edge25" class="edge">
<title>MovimentacoesModule&#45;&gt;AppModule</title>
<path fill="none" stroke="black" d="M1892,-122.02C1892,-139.37 1892,-163 1892,-163 1892,-163 2702.13,-163 2702.13,-163"/>
<polygon fill="black" stroke="black" points="2702.13,-166.5 2712.13,-163 2702.13,-159.5 2702.13,-166.5"/>
</g>
<!-- PedidoAlmoxarifadosModule -->
<g id="node26" class="node">
<title>PedidoAlmoxarifadosModule</title>
<polygon fill="#8dd3c7" stroke="black" points="1799.41,-122 1796.41,-126 1775.41,-126 1772.41,-122 1616.59,-122 1616.59,-86 1799.41,-86 1799.41,-122"/>
<text text-anchor="middle" x="1708" y="-99.8" font-family="Times,serif" font-size="14.00">PedidoAlmoxarifadosModule</text>
</g>
<!-- PedidoAlmoxarifadosModule&#45;&gt;AppModule -->
<g id="edge26" class="edge">
<title>PedidoAlmoxarifadosModule&#45;&gt;AppModule</title>
<path fill="none" stroke="black" d="M1708,-122.3C1708,-140.27 1708,-165 1708,-165 1708,-165 2702.03,-165 2702.03,-165"/>
<polygon fill="black" stroke="black" points="2702.03,-168.5 2712.03,-165 2702.03,-161.5 2702.03,-168.5"/>
</g>
<!-- PerfilsModule -->
<g id="node27" class="node">
<title>PerfilsModule</title>
<polygon fill="#8dd3c7" stroke="black" points="1599.09,-122 1596.09,-126 1575.09,-126 1572.09,-122 1502.91,-122 1502.91,-86 1599.09,-86 1599.09,-122"/>
<text text-anchor="middle" x="1551" y="-99.8" font-family="Times,serif" font-size="14.00">PerfilsModule</text>
</g>
<!-- PerfilsModule&#45;&gt;AppModule -->
<g id="edge27" class="edge">
<title>PerfilsModule&#45;&gt;AppModule</title>
<path fill="none" stroke="black" d="M1551,-122.22C1551,-140.83 1551,-167 1551,-167 1551,-167 2702.24,-167 2702.24,-167"/>
<polygon fill="black" stroke="black" points="2702.24,-170.5 2712.24,-167 2702.24,-163.5 2702.24,-170.5"/>
</g>
<!-- PermissaoUsuariosModule -->
<g id="node28" class="node">
<title>PermissaoUsuariosModule</title>
<polygon fill="#8dd3c7" stroke="black" points="1485.35,-122 1482.35,-126 1461.35,-126 1458.35,-122 1318.65,-122 1318.65,-86 1485.35,-86 1485.35,-122"/>
<text text-anchor="middle" x="1402" y="-99.8" font-family="Times,serif" font-size="14.00">PermissaoUsuariosModule</text>
</g>
<!-- PermissaoUsuariosModule&#45;&gt;AppModule -->
<g id="edge28" class="edge">
<title>PermissaoUsuariosModule&#45;&gt;AppModule</title>
<path fill="none" stroke="black" d="M1402,-122.11C1402,-141.34 1402,-169 1402,-169 1402,-169 2702.05,-169 2702.05,-169"/>
<polygon fill="black" stroke="black" points="2702.05,-172.5 2712.05,-169 2702.05,-165.5 2702.05,-172.5"/>
</g>
<!-- PontoClientesModule -->
<g id="node29" class="node">
<title>PontoClientesModule</title>
<polygon fill="#8dd3c7" stroke="black" points="1301.11,-122 1298.11,-126 1277.11,-126 1274.11,-122 1162.89,-122 1162.89,-86 1301.11,-86 1301.11,-122"/>
<text text-anchor="middle" x="1232" y="-99.8" font-family="Times,serif" font-size="14.00">PontoClientesModule</text>
</g>
<!-- PontoClientesModule&#45;&gt;AppModule -->
<g id="edge29" class="edge">
<title>PontoClientesModule&#45;&gt;AppModule</title>
<path fill="none" stroke="black" d="M1232,-122.03C1232,-141.58 1232,-170 1232,-170 1232,-170 2702.1,-170 2702.1,-170"/>
<polygon fill="black" stroke="black" points="2702.1,-173.5 2712.1,-170 2702.1,-166.5 2702.1,-173.5"/>
</g>
<!-- PontosModule -->
<g id="node30" class="node">
<title>PontosModule</title>
<polygon fill="#8dd3c7" stroke="black" points="1144.67,-122 1141.67,-126 1120.67,-126 1117.67,-122 1047.33,-122 1047.33,-86 1144.67,-86 1144.67,-122"/>
<text text-anchor="middle" x="1096" y="-99.8" font-family="Times,serif" font-size="14.00">PontosModule</text>
</g>
<!-- PontosModule&#45;&gt;AppModule -->
<g id="edge30" class="edge">
<title>PontosModule&#45;&gt;AppModule</title>
<path fill="none" stroke="black" d="M1096,-122.22C1096,-142.37 1096,-172 1096,-172 1096,-172 2702.19,-172 2702.19,-172"/>
<polygon fill="black" stroke="black" points="2702.19,-175.5 2712.19,-172 2702.19,-168.5 2702.19,-175.5"/>
</g>
<!-- PrismaModule -->
<g id="node31" class="node">
<title>PrismaModule</title>
<polygon fill="#8dd3c7" stroke="black" points="1029.43,-122 1026.43,-126 1005.43,-126 1002.43,-122 930.57,-122 930.57,-86 1029.43,-86 1029.43,-122"/>
<text text-anchor="middle" x="980" y="-99.8" font-family="Times,serif" font-size="14.00">PrismaModule</text>
</g>
<!-- PrismaModule&#45;&gt;AppModule -->
<g id="edge31" class="edge">
<title>PrismaModule&#45;&gt;AppModule</title>
<path fill="none" stroke="black" d="M980,-122.03C980,-142.77 980,-174 980,-174 980,-174 2702.33,-174 2702.33,-174"/>
<polygon fill="black" stroke="black" points="2702.33,-177.5 2712.33,-174 2702.33,-170.5 2702.33,-177.5"/>
</g>
<!-- PrismaTenantModule -->
<g id="node32" class="node">
<title>PrismaTenantModule</title>
<polygon fill="#8dd3c7" stroke="black" points="912.81,-122 909.81,-126 888.81,-126 885.81,-122 775.19,-122 775.19,-86 912.81,-86 912.81,-122"/>
<text text-anchor="middle" x="844" y="-99.8" font-family="Times,serif" font-size="14.00">PrismaTenantModule</text>
</g>
<!-- PrismaTenantModule&#45;&gt;AppModule -->
<g id="edge32" class="edge">
<title>PrismaTenantModule&#45;&gt;AppModule</title>
<path fill="none" stroke="black" d="M844,-122.17C844,-143.5 844,-176 844,-176 844,-176 2702.33,-176 2702.33,-176"/>
<polygon fill="black" stroke="black" points="2702.33,-179.5 2712.33,-176 2702.33,-172.5 2702.33,-179.5"/>
</g>
<!-- SistemasModule -->
<g id="node33" class="node">
<title>SistemasModule</title>
<polygon fill="#8dd3c7" stroke="black" points="757.82,-122 754.82,-126 733.82,-126 730.82,-122 648.18,-122 648.18,-86 757.82,-86 757.82,-122"/>
<text text-anchor="middle" x="703" y="-99.8" font-family="Times,serif" font-size="14.00">SistemasModule</text>
</g>
<!-- SistemasModule&#45;&gt;AppModule -->
<g id="edge33" class="edge">
<title>SistemasModule&#45;&gt;AppModule</title>
<path fill="none" stroke="black" d="M703,-122.29C703,-144.21 703,-178 703,-178 703,-178 2702.1,-178 2702.1,-178"/>
<polygon fill="black" stroke="black" points="2702.1,-181.5 2712.1,-178 2702.1,-174.5 2702.1,-181.5"/>
</g>
<!-- TenantModule -->
<g id="node34" class="node">
<title>TenantModule</title>
<polygon fill="#8dd3c7" stroke="black" points="630.42,-122 627.42,-126 606.42,-126 603.42,-122 531.58,-122 531.58,-86 630.42,-86 630.42,-122"/>
<text text-anchor="middle" x="581" y="-99.8" font-family="Times,serif" font-size="14.00">TenantModule</text>
</g>
<!-- TenantModule&#45;&gt;AppModule -->
<g id="edge34" class="edge">
<title>TenantModule&#45;&gt;AppModule</title>
<path fill="none" stroke="black" d="M581,-122.01C581,-144.49 581,-180 581,-180 581,-180 2702.05,-180 2702.05,-180"/>
<polygon fill="black" stroke="black" points="2702.05,-183.5 2712.05,-180 2702.05,-176.5 2702.05,-183.5"/>
</g>
<!-- TipoDespesasModule -->
<g id="node35" class="node">
<title>TipoDespesasModule</title>
<polygon fill="#8dd3c7" stroke="black" points="514.08,-122 511.08,-126 490.08,-126 487.08,-122 375.92,-122 375.92,-86 514.08,-86 514.08,-122"/>
<text text-anchor="middle" x="445" y="-99.8" font-family="Times,serif" font-size="14.00">TipoDespesasModule</text>
</g>
<!-- TipoDespesasModule&#45;&gt;AppModule -->
<g id="edge35" class="edge">
<title>TipoDespesasModule&#45;&gt;AppModule</title>
<path fill="none" stroke="black" d="M445,-122.09C445,-145.13 445,-182 445,-182 445,-182 2701.95,-182 2701.95,-182"/>
<polygon fill="black" stroke="black" points="2701.95,-185.5 2711.95,-182 2701.95,-178.5 2701.95,-185.5"/>
</g>
<!-- TipoMesasModule -->
<g id="node36" class="node">
<title>TipoMesasModule</title>
<polygon fill="#8dd3c7" stroke="black" points="357.76,-122 354.76,-126 333.76,-126 330.76,-122 236.24,-122 236.24,-86 357.76,-86 357.76,-122"/>
<text text-anchor="middle" x="297" y="-99.8" font-family="Times,serif" font-size="14.00">TipoMesasModule</text>
</g>
<!-- TipoMesasModule&#45;&gt;AppModule -->
<g id="edge36" class="edge">
<title>TipoMesasModule&#45;&gt;AppModule</title>
<path fill="none" stroke="black" d="M297,-122.15C297,-145.76 297,-184 297,-184 297,-184 2702.13,-184 2702.13,-184"/>
<polygon fill="black" stroke="black" points="2702.13,-187.5 2712.13,-184 2702.13,-180.5 2702.13,-187.5"/>
</g>
<!-- PrismaTenantService  -->
<g id="node38" class="node">
<title>PrismaTenantService </title>
<polygon fill="#fb8072" stroke="black" points="2823.73,-252 2684.27,-252 2684.27,-216 2823.73,-216 2823.73,-252"/>
<text text-anchor="middle" x="2754" y="-229.8" font-family="Times,serif" font-size="14.00">PrismaTenantService </text>
</g>
<!-- AppModule&#45;&gt;PrismaTenantService  -->
<g id="edge37" class="edge">
<title>AppModule&#45;&gt;PrismaTenantService </title>
<path fill="none" stroke="black" stroke-dasharray="5,2" d="M2754,-187.11C2754,-187.11 2754,-205.99 2754,-205.99"/>
<polygon fill="black" stroke="black" points="2750.5,-205.99 2754,-215.99 2757.5,-205.99 2750.5,-205.99"/>
</g>
<!-- PrismaTenantService -->
<g id="node39" class="node">
<title>PrismaTenantService</title>
<ellipse fill="#fdb462" stroke="black" cx="118" cy="-104" rx="93.75" ry="18"/>
<text text-anchor="middle" x="118" y="-99.8" font-family="Times,serif" font-size="14.00">PrismaTenantService</text>
</g>
<!-- PrismaTenantService&#45;&gt;AppModule -->
<g id="edge38" class="edge">
<title>PrismaTenantService&#45;&gt;AppModule</title>
<path fill="none" stroke="black" d="M118,-122.2C118,-146.36 118,-186 118,-186 118,-186 2702.33,-186 2702.33,-186"/>
<polygon fill="black" stroke="black" points="2702.33,-189.5 2712.33,-186 2702.33,-182.5 2702.33,-189.5"/>
</g>
</g>
</svg>
