<?xml version="1.0" encoding="UTF-8" standalone="no"?>
<!DOCTYPE svg PUBLIC "-//W3C//DTD SVG 1.1//EN"
 "http://www.w3.org/Graphics/SVG/1.1/DTD/svg11.dtd">
<!-- Generated by graphviz version 2.47.0 (20210316.0004)
 -->
<!-- Title: dependencies Pages: 1 -->
<svg width="504pt" height="211pt"
 viewBox="0.00 0.00 504.00 211.00" xmlns="http://www.w3.org/2000/svg" xmlns:xlink="http://www.w3.org/1999/xlink">
<g id="graph0" class="graph" transform="scale(1 1) rotate(0) translate(4 207)">
<title>dependencies</title>
<polygon fill="white" stroke="transparent" points="-4,4 -4,-207 500,-207 500,4 -4,4"/>
<text text-anchor="start" x="227.01" y="-42.4" font-family="Times-12" font-weight="bold" font-size="14.00">Legend</text>
<polygon fill="#ffffb3" stroke="transparent" points="14,-10 14,-30 34,-30 34,-10 14,-10"/>
<text text-anchor="start" x="37.63" y="-15.4" font-family="Times-12" font-size="14.00"> &#160;Declarations</text>
<polygon fill="#8dd3c7" stroke="transparent" points="127,-10 127,-30 147,-30 147,-10 127,-10"/>
<text text-anchor="start" x="150.73" y="-15.4" font-family="Times-12" font-size="14.00"> &#160;Module</text>
<polygon fill="#80b1d3" stroke="transparent" points="213,-10 213,-30 233,-30 233,-10 213,-10"/>
<text text-anchor="start" x="236.78" y="-15.4" font-family="Times-12" font-size="14.00"> &#160;Bootstrap</text>
<polygon fill="#fdb462" stroke="transparent" points="310,-10 310,-30 330,-30 330,-10 310,-10"/>
<text text-anchor="start" x="333.67" y="-15.4" font-family="Times-12" font-size="14.00"> &#160;Providers</text>
<polygon fill="#fb8072" stroke="transparent" points="406,-10 406,-30 426,-30 426,-10 406,-10"/>
<text text-anchor="start" x="429.73" y="-15.4" font-family="Times-12" font-size="14.00"> &#160;Exports</text>
<g id="clust1" class="cluster">
<title>cluster_ClientesModule</title>
<polygon fill="none" stroke="black" stroke-dasharray="1,5" points="99,-70 99,-195 397,-195 397,-70 99,-70"/>
</g>
<g id="clust6" class="cluster">
<title>cluster_ClientesModule_providers</title>
<polygon fill="none" stroke="black" points="229,-78 229,-130 389,-130 389,-78 229,-78"/>
</g>
<g id="clust3" class="cluster">
<title>cluster_ClientesModule_imports</title>
<polygon fill="none" stroke="black" points="107,-78 107,-130 221,-130 221,-78 107,-78"/>
</g>
<!-- PrismaModule -->
<g id="node1" class="node">
<title>PrismaModule</title>
<polygon fill="#8dd3c7" stroke="black" points="213.43,-122 210.43,-126 189.43,-126 186.43,-122 114.57,-122 114.57,-86 213.43,-86 213.43,-122"/>
<text text-anchor="middle" x="164" y="-99.8" font-family="Times,serif" font-size="14.00">PrismaModule</text>
</g>
<!-- ClientesModule -->
<g id="node2" class="node">
<title>ClientesModule</title>
<polygon fill="#8dd3c7" stroke="black" points="288.93,-187 285.93,-191 264.93,-191 261.93,-187 183.07,-187 183.07,-151 288.93,-151 288.93,-187"/>
<text text-anchor="middle" x="236" y="-164.8" font-family="Times,serif" font-size="14.00">ClientesModule</text>
</g>
<!-- PrismaModule&#45;&gt;ClientesModule -->
<g id="edge1" class="edge">
<title>PrismaModule&#45;&gt;ClientesModule</title>
<path fill="none" stroke="black" d="M198.25,-122.11C198.25,-122.11 198.25,-140.99 198.25,-140.99"/>
<polygon fill="black" stroke="black" points="194.75,-140.99 198.25,-150.99 201.75,-140.99 194.75,-140.99"/>
</g>
<!-- ClientesService -->
<g id="node3" class="node">
<title>ClientesService</title>
<ellipse fill="#fdb462" stroke="black" cx="309" cy="-104" rx="71.78" ry="18"/>
<text text-anchor="middle" x="309" y="-99.8" font-family="Times,serif" font-size="14.00">ClientesService</text>
</g>
<!-- ClientesService&#45;&gt;ClientesModule -->
<g id="edge2" class="edge">
<title>ClientesService&#45;&gt;ClientesModule</title>
<path fill="none" stroke="black" d="M263.04,-118.1C263.04,-118.1 263.04,-140.72 263.04,-140.72"/>
<polygon fill="black" stroke="black" points="259.54,-140.72 263.04,-150.72 266.54,-140.72 259.54,-140.72"/>
</g>
</g>
</svg>
