<?xml version="1.0" encoding="UTF-8" standalone="no"?>
<!DOCTYPE svg PUBLIC "-//W3C//DTD SVG 1.1//EN"
 "http://www.w3.org/Graphics/SVG/1.1/DTD/svg11.dtd">
<!-- Generated by graphviz version 2.47.0 (20210316.0004)
 -->
<!-- Title: dependencies Pages: 1 -->
<svg width="504pt" height="211pt"
 viewBox="0.00 0.00 504.00 211.00" xmlns="http://www.w3.org/2000/svg" xmlns:xlink="http://www.w3.org/1999/xlink">
<g id="graph0" class="graph" transform="scale(1 1) rotate(0) translate(4 207)">
<title>dependencies</title>
<polygon fill="white" stroke="transparent" points="-4,4 -4,-207 500,-207 500,4 -4,4"/>
<text text-anchor="start" x="227.01" y="-42.4" font-family="Times-12" font-weight="bold" font-size="14.00">Legend</text>
<polygon fill="#ffffb3" stroke="transparent" points="14,-10 14,-30 34,-30 34,-10 14,-10"/>
<text text-anchor="start" x="37.63" y="-15.4" font-family="Times-12" font-size="14.00"> &#160;Declarations</text>
<polygon fill="#8dd3c7" stroke="transparent" points="127,-10 127,-30 147,-30 147,-10 127,-10"/>
<text text-anchor="start" x="150.73" y="-15.4" font-family="Times-12" font-size="14.00"> &#160;Module</text>
<polygon fill="#80b1d3" stroke="transparent" points="213,-10 213,-30 233,-30 233,-10 213,-10"/>
<text text-anchor="start" x="236.78" y="-15.4" font-family="Times-12" font-size="14.00"> &#160;Bootstrap</text>
<polygon fill="#fdb462" stroke="transparent" points="310,-10 310,-30 330,-30 330,-10 310,-10"/>
<text text-anchor="start" x="333.67" y="-15.4" font-family="Times-12" font-size="14.00"> &#160;Providers</text>
<polygon fill="#fb8072" stroke="transparent" points="406,-10 406,-30 426,-30 426,-10 406,-10"/>
<text text-anchor="start" x="429.73" y="-15.4" font-family="Times-12" font-size="14.00"> &#160;Exports</text>
<g id="clust1" class="cluster">
<title>cluster_LinhasModule</title>
<polygon fill="none" stroke="black" stroke-dasharray="1,5" points="105,-70 105,-195 391,-195 391,-70 105,-70"/>
</g>
<g id="clust6" class="cluster">
<title>cluster_LinhasModule_providers</title>
<polygon fill="none" stroke="black" points="235,-78 235,-130 383,-130 383,-78 235,-78"/>
</g>
<g id="clust3" class="cluster">
<title>cluster_LinhasModule_imports</title>
<polygon fill="none" stroke="black" points="113,-78 113,-130 227,-130 227,-78 113,-78"/>
</g>
<!-- PrismaModule -->
<g id="node1" class="node">
<title>PrismaModule</title>
<polygon fill="#8dd3c7" stroke="black" points="219.43,-122 216.43,-126 195.43,-126 192.43,-122 120.57,-122 120.57,-86 219.43,-86 219.43,-122"/>
<text text-anchor="middle" x="170" y="-99.8" font-family="Times,serif" font-size="14.00">PrismaModule</text>
</g>
<!-- LinhasModule -->
<g id="node2" class="node">
<title>LinhasModule</title>
<polygon fill="#8dd3c7" stroke="black" points="287.65,-187 284.65,-191 263.65,-191 260.65,-187 190.35,-187 190.35,-151 287.65,-151 287.65,-187"/>
<text text-anchor="middle" x="239" y="-164.8" font-family="Times,serif" font-size="14.00">LinhasModule</text>
</g>
<!-- PrismaModule&#45;&gt;LinhasModule -->
<g id="edge1" class="edge">
<title>PrismaModule&#45;&gt;LinhasModule</title>
<path fill="none" stroke="black" d="M204.7,-122.11C204.7,-122.11 204.7,-140.99 204.7,-140.99"/>
<polygon fill="black" stroke="black" points="201.2,-140.99 204.7,-150.99 208.2,-140.99 201.2,-140.99"/>
</g>
<!-- LinhasService -->
<g id="node3" class="node">
<title>LinhasService</title>
<ellipse fill="#fdb462" stroke="black" cx="309" cy="-104" rx="66.05" ry="18"/>
<text text-anchor="middle" x="309" y="-99.8" font-family="Times,serif" font-size="14.00">LinhasService</text>
</g>
<!-- LinhasService&#45;&gt;LinhasModule -->
<g id="edge2" class="edge">
<title>LinhasService&#45;&gt;LinhasModule</title>
<path fill="none" stroke="black" d="M265.28,-117.78C265.28,-117.78 265.28,-140.55 265.28,-140.55"/>
<polygon fill="black" stroke="black" points="261.78,-140.55 265.28,-150.55 268.78,-140.55 261.78,-140.55"/>
</g>
</g>
</svg>
